<svg width="148" height="140" viewBox="0 0 148 140" fill="none" xmlns="http://www.w3.org/2000/svg">
<path d="M133.873 20.5632V118.438C133.873 120.676 132.984 122.822 131.402 124.404C129.819 125.987 127.673 126.876 125.436 126.876H27.5605C25.3228 126.876 23.1767 125.987 21.5943 124.404C20.012 122.822 19.123 120.676 19.123 118.438V20.5632C19.123 18.3255 20.012 16.1794 21.5943 14.597C23.1767 13.0147 25.3228 12.1257 27.5605 12.1257L125.436 12.1257C127.673 12.1257 129.819 13.0147 131.402 14.597C132.984 16.1794 133.873 18.3255 133.873 20.5632V20.5632ZM52.873 56.0007H35.998V110.001H52.873V56.0007ZM54.3918 37.4382C54.4007 36.1618 54.1581 34.8961 53.6778 33.7134C53.1975 32.5307 52.489 31.4542 51.5927 30.5453C50.6964 29.6365 49.6298 28.913 48.4539 28.4164C47.278 27.9197 46.0158 27.6596 44.7393 27.6507H44.4355C41.8397 27.6507 39.3503 28.6819 37.5147 30.5174C35.6792 32.3529 34.648 34.8424 34.648 37.4382C34.648 40.034 35.6792 42.5235 37.5147 44.359C39.3503 46.1946 41.8397 47.2257 44.4355 47.2257V47.2257C45.7121 47.2571 46.9823 47.0367 48.1736 46.577C49.365 46.1174 50.454 45.4274 51.3786 44.5467C52.3032 43.666 53.0452 42.6117 53.5623 41.4441C54.0793 40.2766 54.3611 39.0185 54.3918 37.742V37.4382ZM116.998 77.1957C116.998 60.962 106.671 54.6507 96.4106 54.6507C93.0512 54.4825 89.7065 55.198 86.71 56.7259C83.7135 58.2538 81.1699 60.5406 79.3331 63.3582H78.8606V56.0007H62.998V110.001H79.8731V81.2795C79.6291 78.3379 80.5557 75.419 82.4515 73.1566C84.3473 70.8943 87.0592 69.4714 89.9981 69.197H90.6393C96.0056 69.197 99.988 72.572 99.988 81.077V110.001H116.863L116.998 77.1957Z" fill="#5C7B52"/>
</svg>
