<svg width="148" height="147" viewBox="0 0 148 147" fill="none" xmlns="http://www.w3.org/2000/svg">
<g id="icon/linkedin">
<path id="vector" d="M129.125 26.4816V120.518C129.125 122.668 128.271 124.73 126.751 126.251C125.23 127.771 123.168 128.625 121.018 128.625H26.9816C24.8316 128.625 22.7697 127.771 21.2494 126.251C19.7291 124.73 18.875 122.668 18.875 120.518V26.4816C18.875 24.3316 19.7291 22.2697 21.2494 20.7494C22.7697 19.2291 24.8316 18.375 26.9816 18.375H121.018C123.168 18.375 125.23 19.2291 126.751 20.7494C128.271 22.2697 129.125 24.3316 129.125 26.4816ZM51.3015 60.5294H35.0882V112.412H51.3015V60.5294ZM52.7607 42.6949C52.7692 41.4685 52.5361 40.2524 52.0747 39.1161C51.6132 37.9798 50.9325 36.9455 50.0713 36.0722C49.2101 35.199 48.1854 34.504 47.0556 34.0268C45.9258 33.5496 44.7131 33.2997 43.4867 33.2912H43.1949C40.7008 33.2912 38.309 34.2819 36.5455 36.0455C34.7819 37.809 33.7912 40.2008 33.7912 42.6949C33.7912 45.1889 34.7819 47.5807 36.5455 49.3443C38.309 51.1078 40.7008 52.0985 43.1949 52.0985C44.4213 52.1287 45.6417 51.9169 46.7864 51.4753C47.931 51.0336 48.9773 50.3708 49.8657 49.5246C50.754 48.6784 51.4669 47.6655 51.9636 46.5437C52.4604 45.4219 52.7312 44.2132 52.7607 42.9867V42.6949ZM112.912 80.8932C112.912 65.2961 102.989 59.2324 93.1316 59.2324C89.904 59.0707 86.6905 59.7582 83.8115 61.2261C80.9325 62.6941 78.4887 64.8912 76.7238 67.5984H76.2699V60.5294H61.0294V112.412H77.2426V84.8168C77.0083 81.9907 77.8985 79.1861 79.72 77.0125C81.5414 74.8389 84.147 73.4718 86.9706 73.2082H87.5867C92.7425 73.2082 96.5688 76.4508 96.5688 84.6223V112.412H112.782L112.912 80.8932Z" fill="#E4E7E2"/>
</g>
</svg>
