<svg width="71" height="71" viewBox="0 0 71 71" fill="none" xmlns="http://www.w3.org/2000/svg">
<rect width="71" height="71" fill="#F5F5F5"/>
<mask id="path-2-outside-1_731_492" maskUnits="userSpaceOnUse" x="23" y="21" width="26" height="30" fill="black">
<rect fill="white" x="23" y="21" width="26" height="30"/>
<path d="M30.9046 23.7453H41.0065C42.2396 23.7453 43.2948 24.0773 44.1722 24.7413C45.0733 25.3815 45.761 26.2233 46.2353 27.2667C46.7096 28.3101 46.9467 29.4128 46.9467 30.5747C46.9467 31.7367 46.6977 32.8868 46.1997 34.025C45.7255 35.1633 45.0615 36.2067 44.2078 37.1552C43.3541 38.08 42.37 38.827 41.2555 39.3961C40.141 39.9415 38.9434 40.2142 37.6629 40.2142H31.4026L29.553 49H25.5336L30.9046 23.7453ZM38.1965 36.6928C38.7893 36.6928 39.3703 36.5386 39.9394 36.2304C40.5085 35.8984 41.0065 35.4715 41.4333 34.9498C41.8602 34.4044 42.1922 33.7879 42.4293 33.1002C42.6901 32.4125 42.8206 31.6774 42.8206 30.8949C42.8206 30.1598 42.6901 29.5314 42.4293 29.0097C42.1922 28.4643 41.8602 28.0374 41.4333 27.7291C41.0065 27.4209 40.5204 27.2667 39.975 27.2667H34.1771L32.1496 36.6928H38.1965Z"/>
</mask>
<path d="M30.9046 23.7453V21.7453H29.2852L28.9484 23.3293L30.9046 23.7453ZM44.1722 24.7413L42.9653 26.3361L42.9893 26.3542L43.0138 26.3716L44.1722 24.7413ZM46.2353 27.2667L44.4146 28.0943L44.4146 28.0943L46.2353 27.2667ZM46.1997 34.025L44.3674 33.2234L44.3603 33.2395L44.3536 33.2558L46.1997 34.025ZM44.2078 37.1552L45.6774 38.5118L45.686 38.5025L45.6944 38.4931L44.2078 37.1552ZM41.2555 39.3961L42.1346 41.1925L42.1499 41.1851L42.165 41.1773L41.2555 39.3961ZM31.4026 40.2142V38.2142H29.7798L29.4455 39.8022L31.4026 40.2142ZM29.553 49V51H31.1757L31.5101 49.412L29.553 49ZM25.5336 49L23.5773 48.584L23.0635 51H25.5336V49ZM39.9394 36.2304L40.892 37.989L40.9198 37.9739L40.9471 37.9579L39.9394 36.2304ZM41.4333 34.9498L42.9813 36.2163L42.995 36.1995L43.0084 36.1825L41.4333 34.9498ZM42.4293 33.1002L40.5593 32.3909L40.5485 32.4194L40.5386 32.4482L42.4293 33.1002ZM42.4293 29.0097L40.5952 29.8071L40.6165 29.8562L40.6404 29.9041L42.4293 29.0097ZM41.4333 27.7291L42.6043 26.1078L42.6043 26.1078L41.4333 27.7291ZM34.1771 27.2667V25.2667H32.5615L32.2218 26.8462L34.1771 27.2667ZM32.1496 36.6928L30.1943 36.2722L29.6736 38.6928H32.1496V36.6928ZM30.9046 25.7453H41.0065V21.7453H30.9046V25.7453ZM41.0065 25.7453C41.8592 25.7453 42.477 25.9665 42.9653 26.3361L45.3791 23.1464C44.1127 22.1881 42.62 21.7453 41.0065 21.7453V25.7453ZM43.0138 26.3716C43.6163 26.7997 44.0807 27.3599 44.4146 28.0943L48.056 26.4391C47.4413 25.0868 46.5304 23.9633 45.3306 23.1109L43.0138 26.3716ZM44.4146 28.0943C44.769 28.8741 44.9467 29.6942 44.9467 30.5747H48.9467C48.9467 29.1314 48.6501 27.7461 48.056 26.4391L44.4146 28.0943ZM44.9467 30.5747C44.9467 31.442 44.7626 32.3202 44.3674 33.2234L48.032 34.8267C48.6328 33.4534 48.9467 32.0314 48.9467 30.5747H44.9467ZM44.3536 33.2558C43.9692 34.1783 43.4291 35.0307 42.7212 35.8173L45.6944 38.4931C46.6938 37.3826 47.4817 36.1483 48.0459 34.7943L44.3536 33.2558ZM42.7382 35.7986C42.0437 36.551 41.2489 37.1538 40.3459 37.6149L42.165 41.1773C43.4911 40.5002 44.6645 39.6091 45.6774 38.5118L42.7382 35.7986ZM40.3764 37.5997C39.5445 38.0068 38.6488 38.2142 37.6629 38.2142V42.2142C39.2381 42.2142 40.7375 41.8762 42.1346 41.1925L40.3764 37.5997ZM37.6629 38.2142H31.4026V42.2142H37.6629V38.2142ZM29.4455 39.8022L27.5959 48.588L31.5101 49.412L33.3597 40.6262L29.4455 39.8022ZM29.553 47H25.5336V51H29.553V47ZM27.4898 49.416L32.8609 24.1613L28.9484 23.3293L23.5773 48.584L27.4898 49.416ZM38.1965 38.6928C39.1519 38.6928 40.0578 38.4408 40.892 37.989L38.9868 34.4718C38.6827 34.6365 38.4267 34.6928 38.1965 34.6928V38.6928ZM40.9471 37.9579C41.7272 37.5029 42.4069 36.9184 42.9813 36.2163L39.8854 33.6834C39.6061 34.0247 39.2899 34.2939 38.9317 34.5028L40.9471 37.9579ZM43.0084 36.1825C43.5787 35.4537 44.0143 34.639 44.32 33.7522L40.5386 32.4482C40.3701 32.9368 40.1417 33.3552 39.8583 33.7172L43.0084 36.1825ZM44.2993 33.8095C44.6515 32.8811 44.8206 31.9041 44.8206 30.8949H40.8206C40.8206 31.4507 40.7288 31.944 40.5593 32.3909L44.2993 33.8095ZM44.8206 30.8949C44.8206 29.928 44.6492 28.9774 44.2182 28.1152L40.6404 29.9041C40.7311 30.0853 40.8206 30.3915 40.8206 30.8949H44.8206ZM44.2634 28.2122C43.9021 27.3812 43.3584 26.6524 42.6043 26.1078L40.2624 29.3505C40.362 29.4224 40.4822 29.5473 40.5952 29.8071L44.2634 28.2122ZM42.6043 26.1078C41.8238 25.5441 40.9247 25.2667 39.975 25.2667V29.2667C40.1161 29.2667 40.1892 29.2976 40.2624 29.3505L42.6043 26.1078ZM39.975 25.2667H34.1771V29.2667H39.975V25.2667ZM32.2218 26.8462L30.1943 36.2722L34.1049 37.1133L36.1323 27.6873L32.2218 26.8462ZM32.1496 38.6928H38.1965V34.6928H32.1496V38.6928Z" fill="#5C7B52" mask="url(#path-2-outside-1_731_492)"/>
</svg>
